<svg width="40" height="40" viewBox="0 0 40 40" fill="none" xmlns="http://www.w3.org/2000/svg">
<path d="M40 7.625H38.0875V32.375H40V7.625Z" fill="#B0B0B0"/>
<path d="M38.0875 32.375H36.1875V34.2875H38.0875V32.375Z" fill="#B0B0B0"/>
<path d="M38.0875 5.71249H36.1875V7.62499H38.0875V5.71249Z" fill="#B0B0B0"/>
<path d="M36.1875 9.52499H34.2875V13.3375H36.1875V9.52499Z" fill="#B0B0B0"/>
<path d="M36.1875 34.2875H3.8125V36.1875H36.1875V34.2875Z" fill="#B0B0B0"/>
<path d="M34.2875 28.575H32.375V30.475H34.2875V28.575Z" fill="#B0B0B0"/>
<path d="M34.2875 13.3375H32.375V15.2375H34.2875V13.3375Z" fill="#B0B0B0"/>
<path d="M32.375 26.6625H30.475V28.575H32.375V26.6625Z" fill="#B0B0B0"/>
<path d="M32.375 15.2375H30.475V17.1375H32.375V15.2375Z" fill="#B0B0B0"/>
<path d="M30.475 24.7625H28.5625V26.6625H30.475V24.7625Z" fill="#B0B0B0"/>
<path d="M30.475 17.1375H28.5625V19.05H30.475V17.1375Z" fill="#B0B0B0"/>
<path d="M28.5625 22.8625H26.6625V24.7625H28.5625V22.8625Z" fill="#B0B0B0"/>
<path d="M28.5625 19.05H26.6625V20.95H28.5625V19.05Z" fill="#B0B0B0"/>
<path d="M26.6625 20.95H22.85V22.8625H26.6625V20.95Z" fill="#B0B0B0"/>
<path d="M22.85 22.8625H17.1375V24.7625H22.85V22.8625Z" fill="#B0B0B0"/>
<path d="M17.1375 20.95H13.325V22.8625H17.1375V20.95Z" fill="#B0B0B0"/>
<path d="M13.325 22.8625H11.425V24.7625H13.325V22.8625Z" fill="#B0B0B0"/>
<path d="M13.325 19.05H11.425V20.95H13.325V19.05Z" fill="#B0B0B0"/>
<path d="M11.425 24.7625H9.52499V26.6625H11.425V24.7625Z" fill="#B0B0B0"/>
<path d="M11.425 17.1375H9.52499V19.05H11.425V17.1375Z" fill="#B0B0B0"/>
<path d="M9.525 26.6625H7.6125V28.575H9.525V26.6625Z" fill="#B0B0B0"/>
<path d="M9.525 15.2375H7.6125V17.1375H9.525V15.2375Z" fill="#B0B0B0"/>
<path d="M7.61249 28.575H5.71249V30.475H7.61249V28.575Z" fill="#B0B0B0"/>
<path d="M7.61249 13.3375H5.71249V15.2375H7.61249V13.3375Z" fill="#B0B0B0"/>
<path d="M36.1875 3.8125H3.8125V5.7125H36.1875V3.8125Z" fill="#B0B0B0"/>
<path d="M5.7125 9.52499H3.8125V13.3375H5.7125V9.52499Z" fill="#B0B0B0"/>
<path d="M3.81249 32.375H1.89999V34.2875H3.81249V32.375Z" fill="#B0B0B0"/>
<path d="M3.81249 5.71249H1.89999V7.62499H3.81249V5.71249Z" fill="#B0B0B0"/>
<path d="M1.9 7.625H0V32.375H1.9V7.625Z" fill="#B0B0B0"/>
</svg>
