<svg width="40" height="40" viewBox="0 0 40 40" fill="none" xmlns="http://www.w3.org/2000/svg">
<g clip-path="url(#clip0_3002_272)">
<path d="M40 20.0063H38.1V29.5313H40V20.0063Z" fill="#B0B0B0"/>
<path d="M38.1 29.5312H36.1875V33.3313H38.1V29.5312Z" fill="#B0B0B0"/>
<path d="M38.1 16.1938H36.1875V20.0063H38.1V16.1938Z" fill="#B0B0B0"/>
<path d="M36.1875 33.3313H34.2875V37.1438H36.1875V33.3313Z" fill="#B0B0B0"/>
<path d="M36.1875 14.2812H34.2875V16.1937H36.1875V14.2812Z" fill="#B0B0B0"/>
<path d="M34.2875 37.1438H32.375V39.0438H34.2875V37.1438Z" fill="#B0B0B0"/>
<path d="M34.2875 25.7188H32.375V29.5312H34.2875V25.7188Z" fill="#B0B0B0"/>
<path d="M34.2875 20.0063H32.375V23.8063H34.2875V20.0063Z" fill="#B0B0B0"/>
<path d="M34.2875 12.3813H32.375V14.2813H34.2875V12.3813Z" fill="#B0B0B0"/>
<path d="M32.375 29.5312H30.475V31.4313H32.375V29.5312Z" fill="#B0B0B0"/>
<path d="M32.375 14.2812H30.475V20.0062H32.375V14.2812Z" fill="#B0B0B0"/>
<path d="M32.375 6.66875H30.475V8.56875H32.375V6.66875Z" fill="#B0B0B0"/>
<path d="M30.475 31.4313H28.575V33.3313H30.475V31.4313Z" fill="#B0B0B0"/>
<path d="M32.375 23.8063H28.575V25.7188H32.375V23.8063Z" fill="#B0B0B0"/>
<path d="M30.475 8.56876H28.575V10.4813H30.475V8.56876Z" fill="#B0B0B0"/>
<path d="M30.475 4.76875H28.575V6.66875H30.475V4.76875Z" fill="#B0B0B0"/>
<path d="M28.575 25.7188H26.6625V27.6187H28.575V25.7188Z" fill="#B0B0B0"/>
<path d="M28.575 10.4812H26.6625V12.3812H28.575V10.4812Z" fill="#B0B0B0"/>
<path d="M28.575 2.85625H26.6625V4.76875H28.575V2.85625Z" fill="#B0B0B0"/>
<path d="M26.6625 37.1438H24.7625V39.0438H26.6625V37.1438Z" fill="#B0B0B0"/>
<path d="M26.6625 27.6188H24.7625V29.5313H26.6625V27.6188Z" fill="#B0B0B0"/>
<path d="M26.6625 12.3813H24.7625V14.2813H26.6625V12.3813Z" fill="#B0B0B0"/>
<path d="M26.6625 0.956253H24.7625V2.85625H26.6625V0.956253Z" fill="#B0B0B0"/>
<path d="M24.7625 29.5312H22.8625V37.1438H24.7625V29.5312Z" fill="#B0B0B0"/>
<path d="M22.8625 0.956253H20.95V4.76875H22.8625V0.956253Z" fill="#B0B0B0"/>
<path d="M20.95 4.76875H19.05V10.4813H20.95V4.76875Z" fill="#B0B0B0"/>
<path d="M19.05 10.4812H17.1375V14.2812H19.05V10.4812Z" fill="#B0B0B0"/>
<path d="M17.1375 29.5312H15.2375V37.1438H17.1375V29.5312Z" fill="#B0B0B0"/>
<path d="M15.2375 37.1438H13.3375V39.0438H15.2375V37.1438Z" fill="#B0B0B0"/>
<path d="M15.2375 27.6188H13.3375V29.5313H15.2375V27.6188Z" fill="#B0B0B0"/>
<path d="M15.2375 12.3813H13.3375V14.2813H15.2375V12.3813Z" fill="#B0B0B0"/>
<path d="M15.2375 0.956253H13.3375V2.85625H15.2375V0.956253Z" fill="#B0B0B0"/>
<path d="M13.3375 25.7188H11.425V27.6187H13.3375V25.7188Z" fill="#B0B0B0"/>
<path d="M13.3375 10.4812H11.425V12.3812H13.3375V10.4812Z" fill="#B0B0B0"/>
<path d="M13.3375 2.85625H11.425V4.76875H13.3375V2.85625Z" fill="#B0B0B0"/>
<path d="M11.425 31.4313H9.52499V33.3313H11.425V31.4313Z" fill="#B0B0B0"/>
<path d="M11.425 23.8063H7.625V25.7188H11.425V23.8063Z" fill="#B0B0B0"/>
<path d="M11.425 8.56876H9.52499V10.4813H11.425V8.56876Z" fill="#B0B0B0"/>
<path d="M11.425 4.76875H9.52499V6.66875H11.425V4.76875Z" fill="#B0B0B0"/>
<path d="M9.525 29.5312H7.625V31.4313H9.525V29.5312Z" fill="#B0B0B0"/>
<path d="M9.525 14.2812H7.625V20.0062H9.525V14.2812Z" fill="#B0B0B0"/>
<path d="M9.525 6.66875H7.625V8.56875H9.525V6.66875Z" fill="#B0B0B0"/>
<path d="M7.62499 37.1438H5.71249V39.0438H7.62499V37.1438Z" fill="#B0B0B0"/>
<path d="M7.62499 25.7188H5.71249V29.5312H7.62499V25.7188Z" fill="#B0B0B0"/>
<path d="M7.62499 20.0063H5.71249V23.8063H7.62499V20.0063Z" fill="#B0B0B0"/>
<path d="M7.62499 12.3813H5.71249V14.2813H7.62499V12.3813Z" fill="#B0B0B0"/>
<path d="M5.7125 33.3313H3.8125V37.1438H5.7125V33.3313Z" fill="#B0B0B0"/>
<path d="M5.7125 14.2812H3.8125V16.1937H5.7125V14.2812Z" fill="#B0B0B0"/>
<path d="M3.81249 29.5312H1.89999V33.3313H3.81249V29.5312Z" fill="#B0B0B0"/>
<path d="M3.81249 16.1938H1.89999V20.0063H3.81249V16.1938Z" fill="#B0B0B0"/>
<path d="M1.9 20.0063H0V29.5313H1.9V20.0063Z" fill="#B0B0B0"/>
</g>
<defs>
<clipPath id="clip0_3002_272">
<rect width="40" height="40" fill="white"/>
</clipPath>
</defs>
</svg>
