<svg width="40" height="40" viewBox="0 0 40 40" fill="none" xmlns="http://www.w3.org/2000/svg">
<g clip-path="url(#clip0_3002_254)">
<rect width="40" height="40" fill="#1921B5"/>
<path d="M40 3.8125H38.0875V36.1875H40V3.8125Z" fill="#B0B0B0"/>
<path d="M38.0875 36.1875H36.1875V38.1H38.0875V36.1875Z" fill="#B0B0B0"/>
<path d="M38.0875 1.89999H36.1875V3.81249H38.0875V1.89999Z" fill="#B0B0B0"/>
<path d="M36.1875 5.71249H34.275V34.2875H36.1875V5.71249Z" fill="#B0B0B0"/>
<path d="M36.1875 38.1H3.79999V40H36.1875V38.1Z" fill="#B0B0B0"/>
<path d="M34.275 34.2875H5.71249V36.1875H34.275V34.2875Z" fill="#B0B0B0"/>
<path d="M28.5625 19.05H26.6625V17.1375H22.85V19.05H20.95V17.1375H17.1375V28.575H20.95V22.8625H22.85V20.95H24.7625V22.8625H26.6625V28.575H30.475V20.95H28.5625V19.05Z" fill="#B0B0B0"/>
<path d="M13.325 17.1375H9.51251V28.575H13.325V17.1375Z" fill="#B0B0B0"/>
<path d="M13.325 11.425H9.51251V15.2375H13.325V11.425Z" fill="#B0B0B0"/>
<path d="M34.275 3.8125H5.71249V5.7125H34.275V3.8125Z" fill="#B0B0B0"/>
<path d="M36.1875 0H3.79999V1.9H36.1875V0Z" fill="#B0B0B0"/>
<path d="M5.71249 5.71249H3.79999V34.2875H5.71249V5.71249Z" fill="#B0B0B0"/>
<path d="M3.79999 36.1875H1.89999V38.1H3.79999V36.1875Z" fill="#B0B0B0"/>
<path d="M3.79999 1.89999H1.89999V3.81249H3.79999V1.89999Z" fill="#B0B0B0"/>
<path d="M1.9 3.8125H0V36.1875H1.9V3.8125Z" fill="#B0B0B0"/>
</g>
<defs>
<clipPath id="clip0_3002_254">
<rect width="40" height="40" fill="white"/>
</clipPath>
</defs>
</svg>
