<svg width="300" height="300" viewBox="0 0 300 300" fill="none" xmlns="http://www.w3.org/2000/svg">
<path d="M212.5 187.5H175V200H212.5V187.5Z" fill="#466D00"/>
<path d="M162.5 187.5H137.5V200H162.5V187.5Z" fill="#466D00"/>
<path d="M125 187.5H87.5V200H125V187.5Z" fill="#466D00"/>
<path d="M237.5 87.5H225V75H162.5V37.5H137.5V75H75V87.5H62.5V100H50V225H62.5V237.5H75V250H225V237.5H237.5V225H250V100H237.5V87.5ZM212.5 212.5V225H87.5V212.5H75V112.5H87.5V100H212.5V112.5H225V212.5H212.5Z" fill="#466D00"/>
<path d="M287.5 137.5V200H275V212.5H262.5V125H275V137.5H287.5Z" fill="#466D00"/>
<path d="M25 125H37.5V212.5H25V200H12.5V137.5H25V125Z" fill="#466D00"/>
<path d="M212.5 125H175V162.5H212.5V125Z" fill="#466D00"/>
<path d="M125 125H87.5V162.5H125V125Z" fill="#466D00"/>
</svg>
